<?xml version="1.0" encoding="utf-8"?>
<!-- Generator: Adobe Illustrator 17.1.0, SVG Export Plug-In . SVG Version: 6.00 Build 0)  -->
<!DOCTYPE svg PUBLIC "-//W3C//DTD SVG 1.1//EN" "http://www.w3.org/Graphics/SVG/1.1/DTD/svg11.dtd">
<svg version="1.1" id="Layer_1" xmlns="http://www.w3.org/2000/svg" xmlns:xlink="http://www.w3.org/1999/xlink" x="0px" y="0px"
	 viewBox="0 0 1283 355" enable-background="new 0 0 1283 355" xml:space="preserve">
<g>
	<g>
		<path fill="#DAE4F3" d="M133.4,24.9c1.4-0.6,2.8-1.1,4.2-1.7c5.1-0.6,10.1,0.5,15,1.3c9.3,2.1,18.6,4,27.8,6.2
			c3.5,1.4,7.4,2,11.1,1.2c5.3-1.1,10.2,1.9,15.1,3.3c7.1,0.6,13.5,4,20.3,5.7c5.2,2.7,11.1,4,16,7.2c9.8,4.2,18.1,11.1,26.6,17.4
			c20.7,17.1,36.9,39.7,45.9,65c4.2,13,7.9,26.3,8.2,40c1.1,15,0,30.3-4,44.8c-1.9,5.9-3.5,12-5.7,17.8
			c-5.2,11.3-10.9,22.5-18.6,32.4c-16.9,22.7-40.6,40.1-67,49.8c-7.2,2.2-14.2,4.7-21.6,6.2c-0.4,3.8-3.7,7.1-7.5,7.4
			c-10.7,1.3-20.4-4.6-30.9-5.3c-5.3,0-10.5,2.8-15.8,1.4c-4-0.6-7.4-2.9-11.2-3.9c-43-9.2-80.8-39.5-99.4-79.4
			c-5.8-11.4-9.3-23.8-11.8-36.3c-2.4-11.8-2.4-23.9-1.9-35.9c3.2-45.1,28.1-88.4,66.3-113c8.9-5.9,18.5-10.5,28.4-14.6
			c-5-0.2-10.1-1.4-14.7-3.3c-1-0.4-2-0.8-3-1.1c-0.6-0.2-1.7-0.6-2.3-0.8c-0.5-3.1-0.6-6.4,2.1-8.6c5.6-3.9,12.8-3.6,19.3-2.7
			c0.6,0.4,1.8,1.2,2.3,1.6c1.3-0.6,2.6-1.2,3.9-1.9C131.3,25,132.7,24.9,133.4,24.9z M125.4,30.2c-0.5-0.5-1.5-1.5-1.9-2
			c-4.8-0.1-9.8-1-14.4,1c-1.7,1-4,2.6-3.3,4.9c5.2,2.8,11.1,3.9,16.8,5.3c7.3,1.9,12.6,7.8,19.6,10.3c2.5,0.9,5,1.3,7.6,1.8
			c-0.3,0.6-1,1.9-1.4,2.5c-3.6,0-7.4-1.1-10.9,0.5c-7.7,3.2-15.9,4.8-23.2,8.9c1.6,1.1,3,2.7,5.1,2.7c10.3,0.8,19.9-4.4,30.1-4.8
			c4.7,0.2,9.2,2.3,13.9,1.9c3.4-0.1,6.3-1.9,9.4-3.1c4.4-1.8,9.2-1.8,13.7-3.3c4.9-1.4,9.6-3.9,14.9-3.7c7.6,0.2,15.5-0.2,22.9,2.1
			c26.8,10.4,50.1,29.6,65.3,54c15.8,24.9,22.7,55.2,19.6,84.6c-2.9,28.3-16.1,55.2-36.2,75.2c-22.7,23.1-54.2,37.2-86.5,39.4
			c-4.1,0.1-7.8,2-11.1,4.1c6.8,5.2,15.7,7.2,24.1,6.9c39.1-5.8,75.4-28.5,97.5-61.4c16.1-23.5,24.5-52.1,24-80.6
			c-0.6-16.2-3.4-32.4-9.2-47.6c-11-29.9-32.2-55.9-59.3-72.6c-17.6-11.1-37.7-18.1-58.3-21c-4-0.4-8.1-0.4-12-1.6
			c-8.1-2.7-16.5-4.1-24.8-6c-4.6-1-9.3-1.9-13.9-2.4C137.2,25.7,131.4,28.7,125.4,30.2z M109.6,51.6
			c-30.9,15.9-55.8,43.3-68.4,75.8c-8,20.6-11.5,43.1-9.3,65.2c2.2,27.4,13.1,54,30.3,75.4c18.1,22.8,43.5,39.8,71.5,48
			c4.1,1.1,8.3,1.5,12.2,3.2c3.1,1.4,6.2,3.1,9.7,3.1c5,0,9.8-2.2,14.8-1.6c9.2,1.1,17.8,5.3,27.1,5.4c2.9,0.3,4.8-2,6.7-3.7
			c-4.6-0.1-9.2,0.2-13.7-0.5c-7.6-1.4-14.2-6.3-21.9-7.3c-2.3-0.4-4.6-0.5-6.9-1.1c0-0.4,0.1-1,0.1-1.4c5.2-1.5,10.7-1.7,15.7-3.7
			c3.6-1.4,6.8-3.8,10.1-5.8c7.9-5,17.8-4.3,25.8-8.9c-1.2-2-2.5-4.2-5-4.9c-5.2-1.6-10.9-1.4-16.1,0.4c-2.4,0.1-4.6-1.2-6.8-1.9
			c-6-2.4-12.6-1.8-18.8-0.7c-10.7,2.1-21.6,3.8-32,6.9c-9,1.3-18.6,2.2-27.4-0.8c-23.1-13.2-41.8-33.9-53-57.9
			c-12.4-26.3-15.3-56.8-8.6-85.1c6.7-29,23.5-55.5,46.9-74.1c14.2-11.5,31-19.8,48.9-23.7c-4.6-2.4-10-3.5-13.7-7.3
			C121.1,45.2,115.4,48.9,109.6,51.6z M211.7,74.2c-3.5,2-4.3,5.9-4.6,9.7c-14.3,3.6-28.7,6.8-43.1,10.4c-1.5,0.1-3.1,1.1-4.5,0.3
			c-1.7-5.5-2.6-11.2-3.9-16.8c-6.2-1.1-14.4-0.1-18.2,5.5c2.5,13.4,5.6,26.7,8.5,40c2.3-0.1,4.5-0.3,6.8-0.1
			c0.8,3.5-0.1,7.2-0.9,10.7c-1.7,1.6-3.9,2.8-5,5c0.6,0.7,1.2,1.5,1.8,2.2c0.2-1.6,0.8-3.2,1.7-4.6c3.4,2.6,5.2,6.5,7.4,9.9
			c2-3.2,3.9-6.6,6.7-9.2c-1.1-5.3,0.7-11.5,5.4-14.4c6.2-0.5,13-0.5,18.4,3c2.6,1.6,4.6,4.1,6.4,6.4c2.8,0.1,6.1-1.1,8.4,0.9
			c0.6,5.7-1.7,11.3-2,16.9c-2.6-0.9-5.2-1.6-7.9-2.2c-3.6,4.9-1.8,11.4-2.3,17.1c-2.6,1.1-5.3,0.6-7.4-1.3
			c-0.8,0.1-2.5,0.2-3.3,0.3c1.9,1.9,4.1,3.5,6.2,5c1.9-0.9,3.9-1.8,5.8-2.7c0.2-4.1,0.5-8.2,0.6-12.3c1.6,0.3,3.2,0.7,4.8,0.6
			c1.9-0.6,3.3-2.2,4.9-3.3c1.7-4.3,2.6-8.8,2.9-13.3c0.3-5,4.9-9.3,3.1-14.4c-1.8-5.4-7.3-8.3-12.1-10.7
			c-9.9-3.4-21.2-4.8-31.2-0.8c-1.8-3-2.3-6.4-3-9.7c14.7-2.7,29.3-6.3,44.1-8.8c1.6,3.1,2.9,6.5,5.1,9.3c3.8,2.1,8.4,1.9,12.3,3.7
			c2.5,4.3,4.1,9.2,6.3,13.7c5.3,12.5,12.1,24.3,18.2,36.4c-7.6,2.5-15.1,6-21,11.5c-3.6,3.6-6.4,7.9-9.6,11.9
			c-9.8,0.4-19.3-1.5-28.8-3.3c1.8-3.9,4.7-7.2,7.5-10.5c2.5-2.6,2.5-6.4,2.6-9.7c-0.3,0.1-0.8,0.2-1.1,0.3
			c-1.3,3.1-1.3,6.6-3.6,9.3c-2.3,2.8-4.5,5.8-5.9,9.2c-1.5,2.9-1.9,6.3-4.1,8.8c-2.8,2.8-7,1.4-10.1-0.1
			c-7.2-4.2-13.8-9.5-18.4-16.5c-2.4-3.7-1.6-8.3-1.6-12.5c-0.7,0.3-2,0.9-2.6,1.1c-3.9-3.4-3.8-9.2-3.4-13.9
			c-0.4,0.1-1.3,0.4-1.8,0.5c0.1,2.6-0.1,5.2,0.1,7.8c0.1,2.8,2.4,5.1,2.1,7.9c-0.4,4.9-1.7,9.7-2.4,14.6c-3.9,2.1-7.8,4.2-11.7,6.3
			c-4.3,2.5-9.8,1.3-14.1,3.9c-2.4,1.4-4.9,3-7.7,3.5c-12.2,2.9-24.4,10.2-29.5,22.3c-4.8,10.2-3.7,21.8-2.6,32.7
			c0.4,8.5-0.7,17.1,0.7,25.5c0.6,2.8,3.4,4.4,5.2,6.4c-1.1-6-2-12-2.1-18.1c3.2,4.5,6.2,9.3,9.2,14c-3.1-8.8-6.3-17.6-8.1-26.8
			c-2.4-11.8-3.2-25.2,3.6-35.9c6.8-10.7,19-16.3,30.7-20c8,20.3,7.2,43.7-1.2,63.7c-2-10.9-3.2-21.9-5.1-32.8
			c-1,6.3-1.3,12.6-2.7,18.8c-1.2,7.2-3.6,14-5.6,20.9c2.4-2.9,4.7-6,7.2-8.9c1.9,6.5,3.4,13.1,3.4,19.9c0.1,5.8-1.8,11.4-3.3,16.9
			c2.9,1.9,5.3,4.6,8.5,5.9c6.2,0.4,12.5-0.4,18.4-2.4c8.6-1.8,17.2-3.4,25.8-5.2c5.2-0.9,10.4-2.1,15.7-1.1
			c3.8,0.8,7.4,2.1,11.1,3.5c6.1-2.6,12.8-1.8,19-0.1c0.8-5.9-0.1-12,1.9-17.7c1.7-5.3,2.2-10.9,4-16.1c1.9-4.2,3.8-8.4,5.5-12.7
			c2.5-6.5,6-12.6,7.1-19.5c5.6-3.7,11.2-7.4,16.1-12c9.5-8.9,19.1-17.7,27.2-27.9c2.2-2.9,5.6-4.4,7.8-7.3
			c1.3-4.8-0.7-9.7-1.8-14.3c-1.7-5.1-3-10.4-5.4-15.3c-8.1-13.8-20.5-24.1-30.5-36.4c-1.5-1.8-3.4-3.8-3.1-6.4
			c0.2-4.6,0.1-9.2-1.4-13.6c4.7-1.1,9.5-1.9,14.3-3c1.3-3.3,1.6-8-1.8-10c-4.3-0.2-8.4,2-12.6,2.4c-1.9-0.8-2.8-3.5-5.1-3.3
			c-2.4,0.1-5,0.6-7-1.1C220.8,72.1,216.4,73.9,211.7,74.2z M149.8,143.4c2.9,0.2,2.7,3.2,1.9,5.2c0.3,0.6,0.8,1.7,1,2.3
			c0.6-1.7,1.1-3.4,1.7-5.1c-0.9-1.8-1.9-3.6-2.9-5.3C150.9,141.5,150.4,142.5,149.8,143.4z M174.5,146.1c0.8,2.8,4,4.1,5.9,6.1
			c1.3-0.5,2.7-1,4.1-1.5c0.5,1.5,0.9,3,1.4,4.5c0.3-2.7,0.6-5.4,0.9-8.1C182.9,145.5,178.6,144.1,174.5,146.1z M159.6,148.9
			c-0.3,4.3,1.9,7.9,4.7,10.9c0.3,3.3-0.1,6.6,0,9.8c0.9-3.1,1.7-6.3,2.6-9.5C163.8,156.9,161.5,152.9,159.6,148.9z M181,159.6
			c-1.3,0.3-2.1,3.1-0.1,2.4C183.5,162,184,157.7,181,159.6z M176.1,171.1c2.8,3,7.1,3.4,11,3.2
			C183.9,171.8,179.9,171.1,176.1,171.1z M176.5,175.8c2.4,1.9,5.2,3.7,8.4,2.5C182.3,177.1,179.4,176.3,176.5,175.8z M188.8,305.3
			c6.7-1.1,13.5-1.9,20.2-3.3c0.3-1.1,0.5-2.3,0.8-3.4C203.1,301.7,195,300.8,188.8,305.3z"/>
	</g>
	<path fill="#DAE4F3" d="M108.2,32.5c3.3-1.3,7.2-2.6,10.6-1.1C115.4,32.2,111.2,35.8,108.2,32.5z"/>
	<g>
		<path fill="#DAE4F3" d="M131.3,35.4c2.7-1.5,5.3-3.3,8.3-4.2c3-0.4,5.9,0.6,8.8,0.9c0.1,0.5,0.3,1.4,0.4,1.9c-2.9-1-3.2,1.8-4,3.7
			c2.5-0.9,4.3-2.8,5.9-4.8c2.5,0.5,5,0.9,7.6,1.3c-0.2,0.3-0.5,1-0.7,1.4c-1.4,0-2.7,0.1-4.1,0.2c-3.3,0.2-5.6,3.7-9,3.3
			c-3.5-0.1-6.8-1.5-10-2.9c-1.2,0.3-2.3,0.6-3.5,0.9C131.1,36.6,131.2,35.8,131.3,35.4z M136.1,35.6c1.5,0.3,3,0.5,4.6,0.5
			c0.1-0.9,0.2-2.6,0.3-3.5C139.1,33.3,137.4,34.1,136.1,35.6z"/>
	</g>
	<path fill="#DAE4F3" d="M216.3,74.2c1.6-0.4,3.2-0.8,4.8-1.2c-0.3,3.9-1.2,7.7-1.2,11.5c0.5,2.3,1.9,4.3,2.9,6.4
		c-0.8,0.3-2.4,0.8-3.2,1.1c-2.3-1.4-3.1-4.2-4.4-6.3C215.6,81.9,216.1,78,216.3,74.2z"/>
	<path fill="#DAE4F3" d="M222.8,73.5c1.6-1.4,3.2,0,4.7,0.7c-0.8,2.1-1.6,4.2-2.1,6.3c-1,3.3,3,6.3,1.7,9.6c-3.7,1.2-5-3.5-6.2-6
		C220.5,80.5,221.7,76.9,222.8,73.5z"/>
	<path fill="#DAE4F3" d="M229.5,88.8c-3-4.4-2.3-9.9,0.1-14.4c1.4-1.5,3.4,0.5,5,0.8c-1.6,4.4-2.2,9.1-1.9,13.8
		C231.9,89,230.3,88.9,229.5,88.8z"/>
	<path fill="#DAE4F3" d="M211.2,76c0.1-1.6,2.8-1.3,3.1,0.1C214.2,77.7,211.6,77.3,211.2,76z"/>
	<path fill="#DAE4F3" d="M234.4,81.2c2.4-3.5,7.1-3.1,10.7-4.4c0.8,1.6,1.5,3.2,2.2,4.8c-1-1-1.9-1.9-2.9-2.9
		C241.1,79.3,237.8,80.4,234.4,81.2z"/>
	<g>
		<path fill="#DAE4F3" d="M207.7,93.5c0.3-5.4,1.7-10.6,2.6-15.9c5.5,1.5,3.1,7.9,2.7,11.9c2.6,2.3,5.4,5.1,9.3,4.4
			c1.5-0.7,3.1-1.4,4.8-2c0.3-0.3,1.1-0.8,1.4-1c2.9-0.1,5.9-0.8,6.5-4.1c0.4,0.1,1.3,0.2,1.8,0.3c0.8,4.8,1.2,9.6,1.2,14.4
			c-0.2,1.6,0.6,2.9,1.7,4c11.6,13,22.9,26.6,30.6,42.3c2.7,5.4,4.1,11.4,4.9,17.4c0.6-1.2,1.3-2.4,2-3.6c0.7,3.7,1.1,8-1.4,11.2
			c-9.5,8.1-15.5,20.2-27,26c6.2-6.1,9.3-14.4,12.7-22.2c-6.9,7.1-12.8,15-19.9,21.9c-5.5,5.4-11.1,11.3-18.5,13.9
			c2.6-2.9,6.2-4.7,9.1-7.3c5.1-4.5,9.7-9.5,14.1-14.7c-2.8,2.3-5.4,4.8-8.1,7.3c-0.4-1.5-0.7-2.9-1.1-4.4c-0.6,2.1-1.1,4.2-1.6,6.3
			c-0.9-0.7-1.9-1.3-2.8-2c-0.2,1.3-0.4,2.7-0.7,4c-1-0.7-2-1.3-3-2c-0.1,1.5-0.2,2.9-0.3,4.4c-1-0.5-1.9-1-2.9-1.5
			c-0.3,1.9-0.3,4.1-2.6,4.7c0,0.4,0,1.2,0,1.6c-1.3,0.2-2.6,0.4-3.8,0.6c-1-2.6-1.6-5.5,0.3-7.9c4.7-6.7,9.9-13,14.4-19.8
			c-19.1,10.3-29,31.1-35.6,50.8c-1.2-16.6,1.4-33.3,5.9-49.2c3.7-0.4,7.3-0.9,11-1.4c-1.1,3.5-2.1,7.1-2.6,10.8
			c8.9-14.9,21.6-30,39.7-33c-5.7-11-11-22.2-16.7-33.2c-2.2-4.3-4.1-8.8-6.9-12.8c-0.8-2.5-1.9-4.9-2.8-7.4c1.9,1.8,3,4.3,3.4,6.8
			c1.2,0.8,2.6,1.4,4,1.8c-0.9-1.5-1.8-3-2.7-4.5c-1.2-1.3-1.8-3.1-0.6-4.6c-6.1-1.4-12.3-2.6-18.4-4
			C210.2,99.2,208.2,96.6,207.7,93.5z M233.2,91.6c-0.4,1.5-1.5,2.9-1.2,4.5c0.2,2.3,0.1,4.6-0.4,6.8c1.2-0.3,2.4-0.6,3.6-0.9
			c0.9-3.4,0.6-6.9-0.1-10.2C234.6,91.6,233.7,91.6,233.2,91.6z M230.6,114.8c2.6,5.2,5.5,10.2,8.3,15.2c0.6,1.3,1.8,2.1,2.9,3
			c-1.3-3.5-2.2-7.5-5.5-9.8c0.5-0.1,1.6-0.4,2.1-0.5c-1.3-0.9-2.6-1.9-3.8-2.8c0.4-0.4,1.3-1.3,1.8-1.7
			C234.6,116.9,232.7,115.7,230.6,114.8z"/>
	</g>
	<path fill="#DAE4F3" d="M140.9,84.2c3.2-2.2,6.9-3.4,10.7-3.1c-2.5,1.5-5.7,2.3-7.3,5c1.9,0,3.7,0,5.6-0.1c-2,1.3-4.2,2.5-4.5,5.1
		c2.6-0.6,5.4-1.1,8.1-1.4c-1.9,1.7-3.7,3.5-5.6,5.2c0,0.5,0,1.6,0,2.1c1-0.1,2.9-0.2,3.9-0.3c-1.8,2.2-3.3,4.6-4.6,7.2
		c1.8,0.2,3.6,0.3,5.4,0.5c-2,1.9-3.9,4-5.3,6.5c2.2,0,4.4,0.1,6.5,0c-2.1,1.3-4.3,2.7-5.5,5c1.8,0,3.6,0.1,5.5,0.1
		c-1.8,1.2-3.7,2.4-5.5,3.6C145.9,107.8,143.6,95.9,140.9,84.2z"/>
	<path fill="#DAE4F3" d="M160.8,97.3c14.1-2.9,28.2-6.2,42.2-9.6c0,0.5-0.1,1.4-0.1,1.9c-1.1,0.3-2.2,0.7-3.3,1
		c-1.2-0.1-2.4-0.5-3.5-1c0,0.7,0.1,2,0.1,2.7c-0.9-0.6-1.9-1.2-2.9-1.7c-0.5,0.9-0.9,1.7-1.4,2.6c-0.6-0.4-1.9-1.3-2.5-1.7
		c-0.4,0.4-1.1,1.1-1.4,1.4c-2.7,0-5.2,1-7.8,1.2c-0.3,0.2-1,0.6-1.3,0.8c-1.6-0.1-3.1,0.2-4.5,0.9c-0.7,0-2.2,0-2.9,0
		c-0.7,0.7-1.3,1.3-2,2c-2.9-1.6-5.9,0.5-8.7,1.6C160.7,98.9,160.7,97.8,160.8,97.3z"/>
	<g>
		<path fill="#DAE4F3" d="M143.9,195.9c2.5-11.6,4.8-23.2,7.8-34.6c1.1,4.6,2.9,8.9,4.3,13.4c-1.9,6.9-3.6,13.9-4.4,21.1
			c2,0.7,4,1.5,6,2.2c-1.3-1.5-2.7-2.9-4-4.4c1.5,0.2,3,0.4,4.5,0.6c-1-1.5-2-3-3-4.5c0.9,0.1,2.8,0.3,3.8,0.4
			c-1.2-1.8-2.4-3.5-3.6-5.3c1.4,0.5,2.7,1,4.1,1.5c-1-1.5-2-3-3-4.5c0.6,0,1.9-0.1,2.5-0.1c-0.5-1.1-1-2.3-1.5-3.4
			c3.6,3.6,6,8.1,9.6,11.8c2,2.3,4.6,4.1,6.4,6.5c0.5,2,0.6,4.2,0.8,6.2c1.2-2.3,2.1-4.8,3.4-7.1c1.7-1.7,3.9-2.8,5.4-4.6
			c2.5-3.1,3.9-6.7,5.4-10.3c0.8,0.3,2.3,0.8,3,1.1c-5.1,15.6-10.4,31.4-11.4,47.9c-3-0.1-6-0.3-9-0.5c0.7-5,0.1-10.6-4.1-14.1
			c0.5,4.3,2.2,9.3-0.6,13.2c-1.3,2-3.8,1.6-5.9,1.8c-5.5,0.1-11,0.6-16.5,0.9c-1.8-15.9-4.1-31.9-10.1-46.9c3-1.3,6.1-2.6,9.1-4
			C142,185.4,141.8,190.9,143.9,195.9z M152.1,198.6c5.9,2.9,11.2,6.8,16.2,11.1C165.4,203.4,159.1,199,152.1,198.6z"/>
	</g>
	<path fill="#DAE4F3" d="M214.5,236.2c2.7-5.1,4.4-10.7,6.8-15.9c-1.1,14.7-7.1,28.6-14.3,41.4c-1.7-3.3-2.8-6.8-3.6-10.4
		c1.2,1.2,2.5,2.4,3.7,3.6c-0.1-3-0.2-6-0.3-9c1.2,0.6,2.4,1.2,3.6,1.8c-0.6-2.4-1.3-4.8-2-7.2c1.1,0.7,2.2,1.4,3.3,2.1
		c-0.4-2.5-0.7-5-1.1-7.4C212,235.5,213.2,235.9,214.5,236.2z"/>
	<g>
		<path fill="#DAE4F3" d="M170.5,291.5c2.3-0.5,4.6-1.2,7-1.2c3.9,0.7,7.1,3.2,10.2,5.4c-5.6-0.7-10.8,3.7-16.4,2.1
			c-3.5-2.3-7.4-3.8-11.6-4.1C163.3,292.3,167,292.4,170.5,291.5z M168.1,293.7c1.6,1.2,3.4,2.2,5.2,3.1c-0.4-1.3-0.9-2.6-1.4-3.9
			C170.7,293.1,169.4,293.4,168.1,293.7z M177.7,291.9c0,1.5,0.1,2.9,0.1,4.4c1.5-0.7,3-1.3,4.5-1.9
			C180.8,293.5,179.3,292.6,177.7,291.9z"/>
	</g>
	<path fill="#DAE4F3" d="M199.2,290.6c3.4-0.1,6.9,0,10,1.4c-0.1,0.5-0.3,1.5-0.4,2C205.3,294.2,202.2,292,199.2,290.6z"/>
</g>
<g>
	<g>
		<path fill="#3769BC" d="M125.4,30.2c6-1.5,11.8-4.6,18.1-3.9c4.7,0.5,9.3,1.4,13.9,2.4c8.3,1.9,16.7,3.3,24.8,6
			c3.9,1.2,8,1.3,12,1.6c20.6,2.9,40.7,9.9,58.3,21c27.1,16.7,48.3,42.7,59.3,72.6c5.7,15.2,8.5,31.4,9.2,47.6
			c0.4,28.5-8,57.1-24,80.6c-22.1,32.9-58.4,55.6-97.5,61.4c-8.4,0.3-17.3-1.8-24.1-6.9c3.4-2.1,7.1-4,11.1-4.1
			c32.3-2.3,63.8-16.3,86.5-39.4c20.1-20,33.3-46.9,36.2-75.2c3.1-29.3-3.8-59.6-19.6-84.6c-15.2-24.4-38.5-43.6-65.3-54
			c-7.4-2.3-15.3-2-22.9-2.1c-5.2-0.1-10,2.3-14.9,3.7c-4.5,1.4-9.3,1.5-13.7,3.3c-3.1,1.2-6,3-9.4,3.1c-4.8,0.4-9.2-1.6-13.9-1.9
			c-10.2,0.3-19.8,5.5-30.1,4.8c-2.1,0-3.6-1.6-5.1-2.7c7.3-4.1,15.6-5.7,23.2-8.9c3.5-1.6,7.3-0.5,10.9-0.5c0.3-0.6,1-1.9,1.4-2.5
			c-2.5-0.5-5.1-1-7.6-1.8c-7-2.5-12.3-8.4-19.6-10.3c-5.7-1.4-11.6-2.5-16.8-5.3c-0.7-2.3,1.6-3.9,3.3-4.9c4.5-2,9.6-1.1,14.4-1
			C124,28.7,125,29.7,125.4,30.2z M108.2,32.5c3,3.4,7.2-0.3,10.6-1.1C115.4,29.9,111.5,31.2,108.2,32.5z M131.3,35.4
			c-0.1,0.4-0.2,1.2-0.3,1.6c1.2-0.3,2.3-0.6,3.5-0.9c3.2,1.4,6.5,2.8,10,2.9c3.4,0.3,5.7-3.1,9-3.3c1.3-0.1,2.7-0.2,4.1-0.2
			c0.2-0.3,0.5-1,0.7-1.4c-2.5-0.4-5.1-0.8-7.6-1.3c-1.6,2-3.3,4-5.9,4.8c0.8-1.9,1-4.8,4-3.7c-0.1-0.5-0.3-1.4-0.4-1.9
			c-2.9-0.3-5.9-1.3-8.8-0.9C136.6,32.1,134,34,131.3,35.4z"/>
	</g>
	<path fill="#3769BC" d="M136.1,35.6c1.3-1.5,3-2.3,4.8-3c-0.1,0.9-0.2,2.6-0.3,3.5C139.1,36,137.6,35.9,136.1,35.6z"/>
	<g>
		<path fill="#3769BC" d="M109.6,51.6c5.8-2.7,11.6-6.4,18.1-7c3.7,3.8,9.1,4.9,13.7,7.3c-17.9,3.9-34.7,12.2-48.9,23.7
			c-23.3,18.5-40.2,45-46.9,74.1c-6.7,28.3-3.8,58.8,8.6,85.1c11.2,24.1,30,44.7,53,57.9c8.8,3.1,18.4,2.1,27.4,0.8
			c10.5-3.1,21.3-4.8,32-6.9c6.2-1,12.8-1.6,18.8,0.7c2.3,0.6,4.4,2,6.8,1.9c5.1-1.8,10.9-2,16.1-0.4c2.4,0.6,3.8,2.9,5,4.9
			c-8.1,4.6-18,3.8-25.8,8.9c-3.3,2-6.5,4.4-10.1,5.8c-5,2-10.6,2.1-15.7,3.7c0,0.3-0.1,1-0.1,1.4c2.3,0.6,4.6,0.7,6.9,1.1
			c7.7,1.1,14.3,6,21.9,7.3c4.5,0.7,9.2,0.4,13.7,0.5c-1.9,1.8-3.8,4.1-6.7,3.7c-9.3-0.1-17.9-4.2-27.1-5.4c-5-0.6-9.8,1.6-14.8,1.6
			c-3.5,0-6.6-1.7-9.7-3.1c-3.9-1.8-8.1-2.2-12.2-3.2c-28-8.3-53.3-25.2-71.5-48c-17.2-21.4-28-48-30.3-75.4
			c-2.2-22.1,1.3-44.6,9.3-65.2C53.8,94.9,78.6,67.5,109.6,51.6z M170.5,291.5c-3.5,0.9-7.3,0.7-10.6,2.1c4.2,0.4,8.1,1.8,11.6,4.1
			c5.5,1.6,10.7-2.8,16.4-2.1c-3.2-2.1-6.4-4.6-10.2-5.4C175.1,290.3,172.8,291.1,170.5,291.5z M199.2,290.6c3,1.5,6.1,3.6,9.6,3.4
			c0.1-0.5,0.3-1.5,0.4-2C206.1,290.5,202.6,290.5,199.2,290.6z"/>
	</g>
	<g>
		<path fill="#3769BC" d="M211.7,74.2c4.6-0.3,9-2.1,13.7-2.3c2,1.7,4.6,1.2,7,1.1c2.3-0.2,3.3,2.5,5.1,3.3
			c4.3-0.4,8.3-2.6,12.6-2.4c3.4,2,3.1,6.8,1.8,10c-4.7,1.2-9.5,2-14.3,3c1.5,4.4,1.6,9,1.4,13.6c-0.3,2.6,1.6,4.5,3.1,6.4
			c10,12.3,22.4,22.7,30.5,36.4c2.4,4.9,3.7,10.2,5.4,15.3c1.2,4.6,3.1,9.5,1.8,14.3c-2.2,2.8-5.6,4.4-7.8,7.3
			c-8.1,10.2-17.7,19-27.2,27.9c-4.8,4.7-10.5,8.4-16.1,12c-1.1,6.9-4.6,13-7.1,19.5c-1.6,4.3-3.6,8.5-5.5,12.7
			c-1.8,5.2-2.3,10.8-4,16.1c-2,5.7-1.1,11.8-1.9,17.7c-6.2-1.6-12.9-2.5-19,0.1c-3.6-1.4-7.3-2.7-11.1-3.5
			c-5.2-0.9-10.5,0.2-15.7,1.1c-8.6,1.7-17.2,3.4-25.8,5.2c-5.9,2-12.2,2.8-18.4,2.4c-3.2-1.3-5.7-4-8.5-5.9
			c1.5-5.5,3.4-11.1,3.3-16.9c0.1-6.8-1.4-13.5-3.4-19.9c-2.5,2.9-4.8,5.9-7.2,8.9c2-6.9,4.4-13.8,5.6-20.9
			c1.4-6.2,1.7-12.6,2.7-18.8c1.9,10.9,3.1,21.9,5.1,32.8c8.5-20,9.2-43.4,1.2-63.7c-11.7,3.7-23.8,9.3-30.7,20
			c-6.8,10.6-6,24-3.6,35.9c1.8,9.2,5,18,8.1,26.8c-3-4.7-5.9-9.4-9.2-14c0.1,6.1,1,12.1,2.1,18.1c-1.8-2-4.6-3.6-5.2-6.4
			c-1.4-8.4-0.3-17-0.7-25.5c-1.1-10.9-2.2-22.5,2.6-32.7c5.1-12,17.2-19.3,29.5-22.3c2.8-0.6,5.3-2.1,7.7-3.5
			c4.3-2.6,9.8-1.4,14.1-3.9c3.9-2.1,7.8-4.2,11.7-6.3c0.7-4.9,2-9.6,2.4-14.6c0.3-2.8-2-5.1-2.1-7.9c-0.2-2.6-0.1-5.2-0.1-7.8
			c0.4-0.1,1.3-0.4,1.8-0.5c-0.4,4.7-0.4,10.5,3.4,13.9c0.7-0.3,2-0.9,2.6-1.1c0,4.2-0.9,8.8,1.6,12.5c4.6,7,11.2,12.4,18.4,16.5
			c3.1,1.5,7.3,2.8,10.1,0.1c2.2-2.5,2.7-5.9,4.1-8.8c1.4-3.4,3.6-6.4,5.9-9.2c2.2-2.6,2.3-6.2,3.6-9.3c0.3-0.1,0.8-0.2,1.1-0.3
			c-0.1,3.3-0.1,7.1-2.6,9.7c-2.8,3.2-5.7,6.5-7.5,10.5c9.5,1.8,19.1,3.7,28.8,3.3c3.1-4,6-8.2,9.6-11.9c5.9-5.5,13.4-8.9,21-11.5
			c-6-12.1-12.8-23.9-18.2-36.4c-2.2-4.5-3.8-9.3-6.3-13.7c-3.9-1.8-8.5-1.5-12.3-3.7c-2.2-2.8-3.5-6.2-5.1-9.3
			c-14.8,2.4-29.4,6.1-44.1,8.8c0.7,3.3,1.2,6.8,3,9.7c10-3.9,21.3-2.5,31.2,0.8c4.8,2.4,10.3,5.3,12.1,10.7
			c1.8,5.1-2.8,9.4-3.1,14.4c-0.3,4.6-1.2,9.1-2.9,13.3c-1.6,1.2-3,2.7-4.9,3.3c-1.6,0.1-3.2-0.3-4.8-0.6c0,4.1-0.4,8.2-0.6,12.3
			c-1.9,0.9-3.9,1.8-5.8,2.7c-2.2-1.5-4.3-3.2-6.2-5c0.8-0.1,2.5-0.2,3.3-0.3c2.1,1.9,4.7,2.3,7.4,1.3c0.5-5.7-1.4-12.2,2.3-17.1
			c2.6,0.7,5.3,1.4,7.9,2.2c0.3-5.7,2.6-11.2,2-16.9c-2.3-2.1-5.6-0.8-8.4-0.9c-1.9-2.4-3.8-4.8-6.4-6.4c-5.4-3.6-12.2-3.6-18.4-3
			c-4.7,2.9-6.5,9.2-5.4,14.4c-2.8,2.6-4.7,6-6.7,9.2c-2.2-3.5-4.1-7.4-7.4-9.9c-1,1.4-1.5,2.9-1.7,4.6c-0.6-0.7-1.2-1.5-1.8-2.2
			c1.1-2.2,3.3-3.4,5-5c0.7-3.5,1.7-7.2,0.9-10.7c-2.3-0.2-4.5,0-6.8,0.1c-2.9-13.3-5.9-26.6-8.5-40c3.8-5.6,12-6.6,18.2-5.5
			c1.3,5.6,2.3,11.3,3.9,16.8c1.4,0.8,3.1-0.2,4.5-0.3c14.3-3.6,28.8-6.7,43.1-10.4C207.4,80.1,208.2,76.2,211.7,74.2z M216.3,74.2
			c-0.2,3.9-0.6,7.7-1.2,11.5c1.4,2.1,2.2,5,4.4,6.3c0.8-0.3,2.4-0.8,3.2-1.1c-1-2.1-2.4-4.1-2.9-6.4c0-3.9,0.9-7.7,1.2-11.5
			C219.4,73.4,217.8,73.8,216.3,74.2z M222.8,73.5c-1.1,3.4-2.3,7-1.9,10.6c1.2,2.5,2.6,7.2,6.2,6c1.3-3.3-2.7-6.3-1.7-9.6
			c0.6-2.2,1.4-4.2,2.1-6.3C226,73.5,224.4,72.1,222.8,73.5z M229.5,88.8c0.8,0.1,2.4,0.1,3.2,0.2c-0.3-4.7,0.3-9.3,1.9-13.8
			c-1.6-0.3-3.6-2.3-5-0.8C227.2,78.9,226.5,84.4,229.5,88.8z M211.2,76c0.3,1.3,3,1.7,3.1,0.1C214.1,74.7,211.4,74.4,211.2,76z
			 M234.4,81.2c3.4-0.7,6.7-1.8,10.1-2.5c0.9,1,1.9,1.9,2.9,2.9c-0.7-1.6-1.5-3.2-2.2-4.8C241.5,78.1,236.8,77.7,234.4,81.2z
			 M207.7,93.5c0.5,3.1,2.5,5.7,3.8,8.4c6.1,1.4,12.3,2.6,18.4,4c-1.3,1.5-0.6,3.3,0.6,4.6c0.9,1.5,1.8,3,2.7,4.5
			c-1.4-0.4-2.8-1-4-1.8c-0.4-2.6-1.5-5-3.4-6.8c0.9,2.4,2,4.9,2.8,7.4c2.8,4,4.7,8.4,6.9,12.8c5.7,11,11.1,22.2,16.7,33.2
			c-18.1,3-30.7,18.1-39.7,33c0.5-3.7,1.5-7.2,2.6-10.8c-3.7,0.5-7.3,1-11,1.4c-4.5,16-7,32.6-5.9,49.2
			c6.7-19.7,16.6-40.5,35.6-50.8c-4.5,6.8-9.7,13.1-14.4,19.8c-1.8,2.4-1.2,5.3-0.3,7.9c1.3-0.2,2.5-0.4,3.8-0.6c0-0.4,0-1.2,0-1.6
			c2.3-0.6,2.3-2.8,2.6-4.7c1,0.5,1.9,1,2.9,1.5c0.1-1.5,0.2-3,0.3-4.4c1,0.7,2,1.3,3,2c0.2-1.4,0.4-2.7,0.7-4
			c0.9,0.6,1.9,1.3,2.8,2c0.5-2.1,1.1-4.2,1.6-6.3c0.4,1.5,0.7,2.9,1.1,4.4c2.6-2.5,5.3-5,8.1-7.3c-4.4,5.2-9,10.2-14.1,14.7
			c-2.9,2.6-6.4,4.4-9.1,7.3c7.4-2.6,13-8.5,18.5-13.9c7.1-6.9,13-14.9,19.9-21.9c-3.4,7.8-6.5,16.1-12.7,22.2
			c11.5-5.8,17.5-17.8,27-26c2.5-3.2,2.1-7.5,1.4-11.2c-0.7,1.2-1.3,2.4-2,3.6c-0.8-6-2.1-11.9-4.9-17.4
			c-7.7-15.8-19-29.3-30.6-42.3c-1-1.1-1.8-2.5-1.7-4c0-4.8-0.4-9.6-1.2-14.4c-0.4-0.1-1.3-0.2-1.8-0.3c-0.6,3.3-3.6,4-6.5,4.1
			c-0.4,0.3-1.1,0.8-1.4,1c-1.6,0.6-3.2,1.3-4.8,2c-3.9,0.7-6.6-2.1-9.3-4.4c0.4-4,2.7-10.4-2.7-11.9
			C209.5,82.9,208,88.1,207.7,93.5z M140.9,84.2c2.7,11.8,5.1,23.6,7.4,35.5c1.9-1.2,3.7-2.4,5.5-3.6c-1.8,0-3.6-0.1-5.5-0.1
			c1.2-2.3,3.4-3.7,5.5-5c-2.2,0-4.4,0-6.5,0c1.4-2.5,3.3-4.6,5.3-6.5c-1.8-0.2-3.6-0.3-5.4-0.5c1.2-2.6,2.7-5,4.6-7.2
			c-1,0.1-2.9,0.2-3.9,0.3c0-0.5,0-1.6,0-2.1c1.8-1.8,3.7-3.5,5.6-5.2c-2.7,0.3-5.4,0.8-8.1,1.4c0.3-2.6,2.5-3.9,4.5-5.1
			c-1.9,0.1-3.7,0.1-5.6,0.1c1.6-2.7,4.8-3.5,7.3-5C147.7,80.7,144,82,140.9,84.2z M160.8,97.3c0,0.5-0.1,1.6-0.1,2.1
			c2.7-1.1,5.7-3.1,8.7-1.6c0.7-0.7,1.3-1.3,2-2c0.7,0,2.2,0,2.9,0c1.4-0.7,3-1,4.5-0.9c0.3-0.2,1-0.6,1.3-0.8
			c2.6-0.2,5.1-1.2,7.8-1.2c0.4-0.4,1.1-1.1,1.4-1.4c0.6,0.4,1.9,1.3,2.5,1.7c0.5-0.9,0.9-1.8,1.4-2.6c1,0.5,1.9,1.1,2.9,1.7
			c0-0.7-0.1-2-0.1-2.7c1.1,0.5,2.3,0.8,3.5,1c1.1-0.4,2.2-0.7,3.3-1c0-0.5,0.1-1.4,0.1-1.9C189,91.1,174.9,94.3,160.8,97.3z
			 M143.9,195.9c-2.1-5-1.9-10.6-0.8-15.8c-3,1.3-6.1,2.6-9.1,4c6,14.9,8.3,31,10.1,46.9c5.5-0.3,11-0.8,16.5-0.9
			c2-0.2,4.6,0.2,5.9-1.8c2.9-3.9,1.2-8.8,0.6-13.2c4.1,3.5,4.7,9.1,4.1,14.1c3,0.2,6,0.4,9,0.5c1-16.5,6.3-32.3,11.4-47.9
			c-0.8-0.3-2.3-0.8-3-1.1c-1.5,3.6-3,7.3-5.4,10.3c-1.5,1.9-3.7,3-5.4,4.6c-1.4,2.2-2.3,4.7-3.4,7.1c-0.2-2.1-0.3-4.2-0.8-6.2
			c-1.8-2.4-4.4-4.2-6.4-6.5c-3.6-3.6-6-8.2-9.6-11.8c0.5,1.2,1,2.3,1.5,3.4c-0.6,0-1.8,0.1-2.5,0.1c1,1.5,2,3,3,4.5
			c-1.4-0.5-2.7-1-4.1-1.5c1.2,1.8,2.4,3.5,3.6,5.3c-1-0.1-2.8-0.3-3.8-0.4c1,1.5,2,3,3,4.5c-1.5-0.2-3-0.4-4.5-0.6
			c1.3,1.5,2.7,2.9,4,4.4c-2-0.7-4-1.5-6-2.2c0.8-7.2,2.5-14.2,4.4-21.1c-1.5-4.4-3.2-8.8-4.3-13.4
			C148.6,172.8,146.4,184.4,143.9,195.9z M214.5,236.2c-1.3-0.3-2.5-0.7-3.8-1.2c0.3,2.5,0.7,5,1.1,7.4c-1.1-0.7-2.2-1.4-3.3-2.1
			c0.6,2.4,1.3,4.8,2,7.2c-1.2-0.6-2.4-1.2-3.6-1.8c0.1,3,0.2,6,0.3,9c-1.2-1.2-2.5-2.4-3.7-3.6c0.9,3.6,1.9,7.1,3.6,10.4
			c7.2-12.7,13.2-26.7,14.3-41.4C218.9,225.6,217.3,231.1,214.5,236.2z"/>
	</g>
	<path fill="#3769BC" d="M233.2,91.6c0.5,0,1.4,0.1,1.9,0.1c0.8,3.4,1,6.9,0.1,10.2c-1.2,0.3-2.4,0.6-3.6,0.9
		c0.5-2.2,0.7-4.5,0.4-6.8C231.8,94.4,232.8,93,233.2,91.6z"/>
	<path fill="#3769BC" d="M230.6,114.8c2.1,0.9,4,2.1,5.9,3.4c-0.4,0.4-1.3,1.3-1.8,1.7c1.2,1,2.5,1.9,3.8,2.8
		c-0.5,0.1-1.6,0.4-2.1,0.5c3.3,2.3,4.2,6.2,5.5,9.8c-1.1-0.8-2.3-1.7-2.9-3C236.1,125,233.2,120,230.6,114.8z"/>
	<path fill="#3769BC" d="M149.8,143.4c0.6-1,1.1-2,1.7-2.9c1,1.7,2,3.5,2.9,5.3c-0.6,1.7-1.1,3.4-1.7,5.1c-0.3-0.6-0.8-1.7-1-2.3
		C152.5,146.6,152.7,143.6,149.8,143.4z"/>
	<path fill="#3769BC" d="M174.5,146.1c4.1-1.9,8.4-0.5,12.4,1c-0.3,2.7-0.6,5.4-0.9,8.1c-0.5-1.5-0.9-3-1.4-4.5
		c-1.4,0.5-2.7,1-4.1,1.5C178.6,150.1,175.3,148.9,174.5,146.1z"/>
	<path fill="#3769BC" d="M159.6,148.9c2,4.1,4.3,8,7.3,11.3c-0.9,3.2-1.7,6.3-2.6,9.5c-0.2-3.3,0.2-6.6,0-9.8
		C161.5,156.8,159.2,153.2,159.6,148.9z"/>
	<path fill="#3769BC" d="M181,159.6c3-1.9,2.5,2.4-0.1,2.4C178.9,162.7,179.7,159.9,181,159.6z"/>
	<path fill="#3769BC" d="M176.1,171.1c3.8,0.1,7.8,0.7,11,3.2C183.2,174.4,178.8,174.1,176.1,171.1z"/>
	<path fill="#3769BC" d="M176.5,175.8c2.9,0.5,5.7,1.2,8.4,2.5C181.7,179.5,178.9,177.7,176.5,175.8z"/>
	<path fill="#3769BC" d="M593.4,208.4c9.9-15.2,27.2-24.4,44.9-26.6c13.7-1.7,27.8-1,41,2.8c7.1,2.4,14.1,5.2,21.3,7.6
		c1.6,0.6,3.3,0.7,5.1,0.8c-4.6,7.5-9.4,14.9-13.8,22.4c-1.2-5.2-6.4-7.4-10.8-9.4c-12.6-5.8-27-7.9-40.7-5.6
		c-9.3,1.6-18.3,6.4-24.1,13.9c-7.4,9.2-9.4,21.8-7.3,33.1c2.4,11.9,12.1,21.2,23.2,25.5c19.3,7.4,42.3,3.5,58.5-9.4
		c2.7-2.1,4-5.4,4.5-8.7c4.6,6.7,9.3,13.3,14.2,19.8c-1.2,0.1-2.3,0.7-3.1,1.5c-13.8,13.6-33.6,19.5-52.7,19.1
		c-16.2,0.4-33-3.1-46.4-12.4c-10.6-7.2-18.4-18.5-20.8-31.2C583.7,237.1,585.1,221.1,593.4,208.4z"/>
	<path fill="#3769BC" d="M395,183.7c14-1.2,28.5-0.6,41.8,4.6c7.3,3,14.5,6,21.8,8.9c0.7-0.3,2.2-0.9,2.9-1.1
		c-4.4,7.4-9.2,14.6-13.5,22.1c-0.1-1.5-0.3-2.9-0.5-4.4c-3.4-3.7-8.4-5.4-12.9-7.3c-12.8-5.4-27-6.7-40.6-4.8
		c-4.9,0.8-9.9,2.1-13.8,5.3c-2.9,2.4-4.6,6.5-3.3,10.2c2.5,4.3,7.8,5.5,12.2,6.6c9.8,1.8,19.7,2.5,29.5,3.9
		c9.3,1.4,19,1.9,27.5,6.3c7.3,3.5,13.5,10.2,14.5,18.5c1,10.6-1.5,22.1-8.9,30c-7,7.5-17.2,10.8-27,12.3c-16.3,2.3-33.2,1.6-48.7-4
		c-8.8-2.8-16.8-7.5-25.3-11c-1,0.6-2,1.2-3,1.8c4.5-7.4,9-14.7,13.6-22c0,1.3,0,2.7,0,4c15.4,10.5,34.8,14.4,53.2,12.9
		c6.1-0.6,12.4-1.9,17.3-5.7c4-3,5.8-8.8,3.8-13.4c-3.1-4.9-9.3-6.1-14.6-7.3c-14.5-2.1-29.2-3.3-43.6-5.9c-8-1.9-16-6.1-20.4-13.3
		c-3.8-6.1-4.2-13.7-3.1-20.6c1.4-7.7,6.8-14,13.3-18.1C375.5,187,385.3,184.7,395,183.7z"/>
	<path fill="#3769BC" d="M1008.5,182.6c0.6,0.6,1.7,1.8,2.3,2.4c34.2,0.1,68.4,0,102.6,0c0.6-0.6,1.8-1.8,2.4-2.3c0,7.7,0,15.4,0,23
		c-0.8-0.8-1.7-1.6-2.5-2.4c-13.2,0-26.3,0-39.5,0c0,29.6,0,59.1,0,88.7c0.6,0.4,1.9,1.2,2.5,1.5c-9.2,0-18.3-0.1-27.5,0.1
		c1.3-1.1,2.6-2.2,2.2-4.1c0-28.8,0-57.5,0-86.2c-13.4,0-26.9,0-40.3,0c-0.7,0.9-1.5,1.8-2.2,2.7
		C1008.5,198.2,1008.5,190.4,1008.5,182.6z"/>
	<path fill="#3769BC" d="M563.5,185c3.2-0.4,7.5,1.4,9.4-2.2c-0.2,6.8,0,13.6-0.1,20.4c-0.4-0.6-1.2-1.8-1.6-2.4
		c-25.7,0.1-51.4-0.1-77.2,0.1c0.1,9.6,0,19.3,0,28.9c17.3,0,34.5,0,51.8,0c0.7-1.3,1.4-2.5,2.2-3.8c0.1,7.7,0.1,15.5,0,23.3
		c-0.6-1.1-1.3-2.2-1.9-3.3c-17.4,0-34.7,0-52.1,0c0,9.9,0,19.8,0,29.8c26.2,0,52.4,0,78.6,0c0.4-0.7,1.3-2,1.7-2.6
		c0.3,7.7,0.1,15.3,0.1,23c-0.6-0.9-1.3-1.8-1.9-2.6c-33.8,0-67.7,0-101.5,0c0.6-0.4,1.7-1.1,2.3-1.4c0.2-34.2,0-68.4,0.1-102.6
		c0.2-1.7-0.5-3.3-1.6-4.6C502.5,185.2,533,184.9,563.5,185z"/>
	<path fill="#3769BC" d="M719.2,184.9c8.6,0.2,17.3,0.1,25.9,0.1c-0.9,0.6-1.7,1.2-2.6,1.8c0,23.9-0.1,47.9,0.1,71.8
		c-0.2,5.5,3.1,10.6,7.9,13.1c10.3,5.9,22.6,6.1,34.2,5.3c7.1-0.8,14.7-2.2,20.3-7.1c3.6-3,4.4-7.9,4.4-12.3c0-23.5,0-47.1,0-70.7
		c-0.6-0.6-1.2-1.3-1.8-1.9c8.8,0,17.7,0,26.5,0c-0.6,0.7-1.2,1.4-1.7,2.1c0.1,24.5,0,48.9,0.1,73.4c0.1,9.3-3.8,18.8-11.2,24.6
		c-9.8,7.6-22.6,9.6-34.6,10.5c-13.5,0.4-27.3,0.4-40.4-3.5c-7-2.2-14-5.6-18.8-11.4c-4.4-5.3-6.6-12.3-6.5-19.2c0-24,0-48,0-72
		C721,187.8,720.2,186.3,719.2,184.9z"/>
	<path fill="#3769BC" d="M971.4,185c8.8,0,17.6,0,26.4,0c-0.6,0.7-1.2,1.4-1.8,2.1c0.1,34.9,0.1,69.9,0,104.8c0.7,0.4,2,1.3,2.6,1.7
		c-9.3,0-18.7,0-28,0c0.7-0.4,2-1.1,2.6-1.5c0-35,0-70,0-105C972.6,186.3,972,185.6,971.4,185z"/>
	<path fill="#3769BC" d="M1119.4,184.9c10,0.3,20.1,0.1,30.1,0.1c-0.4,0.4-1.1,1.3-1.5,1.8c10.2,13.5,20.2,27.1,30.3,40.6
		c9.7-13.4,19.2-27,28.9-40.4c-0.2-0.5-0.6-1.5-0.8-2c9.3,0,18.6,0.2,28-0.1c-1.5,1-2.9,2.1-3.9,3.6c-13.7,19-27.5,37.9-41.3,56.8
		c0,15.5,0.1,31,0,46.5c0.6,0.4,1.9,1.2,2.5,1.6c-8.8,0.2-17.6,0-26.4,0.1c0.6-0.4,1.8-1.3,2.4-1.7c-0.1-15.5,0-31,0-46.5
		c-12.9-16.4-25.7-32.9-38.6-49.3C1126,192.2,1123.6,187.6,1119.4,184.9z"/>
	<g>
		<path fill="#3769BC" d="M848.7,185.2c21.9,0.1,43.9,0,65.8,0c5.7,0.1,11.5-0.4,17.1,1.1c8.9,2.1,17.6,7.4,22.1,15.6
			c3.4,6.3,3.6,13.8,2.6,20.7c-1.9,12.9-13.5,24-26.7,24.5c8.8,12.6,17.5,25.3,26.2,37.9c2.2,3.1,4,6.7,7.5,8.5
			c-11.1-0.1-22.1,0-33.2,0c0.6-0.4,1.8-1,2.4-1.4c-11.1-15-22.1-30.1-33.2-45.1c-9,0-17.9,0-26.9,0c0,14.2,0,28.3,0,42.5
			c-0.3,1.8,0.4,3.2,1.9,4.1c-8.5-0.1-17.1-0.1-25.6,0c1.4-1,2.3-2.3,2-4.1c0-34.1,0-68.2,0-102.3
			C850.3,186.7,849.3,185.7,848.7,185.2z M872.5,202.5c0,9,0,18,0,27c15.3-0.1,30.7,0.2,46-0.1c5.6,0,12.1-1.9,14.6-7.4
			c1.9-5.2,1.5-12.1-3.1-15.8c-4.3-3.4-10.1-3.5-15.3-3.7C900.6,202.5,886.5,202.5,872.5,202.5z"/>
	</g>
	<path fill="#3769BC" d="M152.1,198.6c6.9,0.4,13.3,4.8,16.2,11.1C163.3,205.4,158,201.5,152.1,198.6z"/>
	<path fill="#3769BC" d="M168.1,293.7c1.3-0.3,2.6-0.5,3.9-0.8c0.5,1.3,0.9,2.6,1.4,3.9C171.5,295.9,169.8,294.9,168.1,293.7z"/>
	<path fill="#3769BC" d="M177.7,291.9c1.6,0.8,3.1,1.6,4.6,2.4c-1.5,0.6-3,1.3-4.5,1.9C177.8,294.8,177.8,293.3,177.7,291.9z"/>
	<path fill="#3769BC" d="M188.8,305.3c6.2-4.5,14.2-3.6,20.9-6.7c-0.3,1.1-0.5,2.3-0.8,3.4C202.3,303.4,195.6,304.2,188.8,305.3z"/>
</g>
<g>
	<path fill="#BC3737" d="M891.1,85.1c9.1-7.9,21.8-9.8,33.5-9.7c9.1-0.2,18.1,1.8,26.3,5.7c4.9,2,9.5,4.8,14.7,5.7
		c-3.5,5.5-6.7,11.2-9.9,16.8c-0.4-1.8-0.4-4.1-2.3-5c-12.1-7.9-27.3-10.5-41.3-7.6c-3.5,0.9-7.2,2.4-9.4,5.4
		c-1.7,2.5-2.2,6.5,0.4,8.5c3.1,2.5,7.2,3.2,11,3.9c10.8,1.5,21.8,2.5,32.5,4.7c8.3,1.9,16.8,7.4,18.5,16.3c1.3,9.1-0.6,19.1-6.8,26
		c-5.3,5.7-13,8.4-20.5,9.6c-12.6,1.9-25.8,1.2-37.8-3.6c-6.1-2.2-11.6-5.6-17.5-8.1c-1.2,0.3-2.3,0.6-3.5,0.9c0.3,4,0.2,8,0.1,12.1
		c-0.5-0.8-1.1-1.5-1.6-2.3c-25.5,0-51.1-0.1-76.6,0.1c1.2-1.1,1.7-2.5,1.5-4.1c0-26,0-52,0-77.9c0-1.9-0.2-3.8-0.6-5.6
		c24.7,0.1,49.4,0.2,74.2-0.1c0.5-0.4,1.5-1.1,2-1.5c-0.2,5.4-0.1,10.8,0,16.2c-1.1-1.3-2.5-2.1-4.3-1.8c-18.4,0-36.9,0-55.3,0
		c0,7.8,0,15.5,0,23.3c13,0,25.9,0.1,38.9,0c0.5-0.9,1-1.8,1.6-2.7c0.1,6.1,0.1,12.3,0,18.4c-0.5-0.8-1-1.6-1.4-2.4
		c-13,0-26,0-39.1,0c0,7.9,0,15.8,0,23.8c19.6,0,39.2-0.1,58.8,0.1c0.6-0.6,1.3-1.1,1.9-1.7c0.1,1.4-0.7,5.7,1.8,4.5
		c2.7-5.3,5.8-10.3,8.8-15.4c0.1,1.6,0.1,3.5,1.9,4.3c10.1,6.3,22.1,9.7,34.1,9.3c5.7,0,11.8-0.7,16.7-3.9c3.8-2.3,5.8-7.3,4.3-11.5
		c-1.6-3.5-5.6-4.7-9-5.7c-7.5-1.6-15.2-2.1-22.7-3.2c-7.4-1.2-15.3-1.4-21.6-5.9C881,113.5,880.5,94.1,891.1,85.1z"/>
	<path fill="#BC3737" d="M967.7,75.2c0.5,0.4,1.4,1.4,1.9,1.8c25.8,0,51.5-0.1,77.3,0c0.7-0.6,1.4-1.2,2.1-1.8c0,6.2,0,12.3,0,18.4
		c-0.6-0.7-1.3-1.4-1.9-2.2c-10,0-19.9,0-29.9,0c0,23,0,46,0,69c-0.3,1.6,0.4,3.1,1.7,4.1c-6.9-0.2-13.9-0.1-20.8-0.1
		c0.5-0.4,1.4-1.1,1.9-1.5c-0.1-23.8,0-47.7,0-71.5c-10.2,0-20.3,0-30.5,0c-0.6,1-1.2,1.9-1.7,2.9C967.7,88,967.8,81.6,967.7,75.2z"
		/>
	<path fill="#BC3737" d="M1150.6,87.7c5.9-7,15.2-10.2,24-11.5c12.3-1.6,25.4-1,36.8,4.4c5.3,2.1,10.3,5.3,16.1,6.3
		c-3.5,5.5-6.7,11.2-9.9,16.9c-0.4-1.8-0.3-4.1-2.2-5.1c-12.1-7.9-27.3-10.6-41.4-7.6c-3.5,0.9-7.2,2.4-9.4,5.5
		c-1.6,2.5-2.2,6.4,0.4,8.4c3.8,3,8.9,3.6,13.5,4.3c10,1.3,20.1,2.3,30.1,4.3c8.3,1.9,16.7,7.4,18.4,16.2c1.3,9.1-0.6,19.2-6.9,26.2
		c-5.1,5.4-12.4,8.1-19.5,9.4c-13.6,2.2-28,1.2-40.7-4.3c-5.4-2-10.2-5.4-15.6-7.3c-0.7,0.1-2,0.3-2.7,0.3
		c3.7-5.4,6.7-11.2,10.1-16.8c0.2,1.5,0.1,3.5,1.8,4.3c12.1,7.7,27,10.8,41.3,8.9c4.7-0.8,9.8-2.3,12.7-6.4c2-3.2,2.6-8.2-0.6-10.8
		c-3.2-2.5-7.3-3.5-11.3-4.1c-10.3-1.4-20.6-2.4-30.8-4.3c-7.8-1.6-15.4-6.8-17.8-14.7C1144.6,102.7,1145.4,93.8,1150.6,87.7z"/>
	<path fill="#BC3737" d="M354.1,77c6.8,0,13.6,0,20.5,0c-0.4,0.4-1.2,1.2-1.5,1.6c0,11,0,21.9,0,32.9c16.5,0,33,0,49.5,0
		c0-9.7,0-19.3,0-29c0-1.9-0.2-3.8-0.7-5.7c6.5,0.2,12.9,0.2,19.4,0c-0.8,1.4-1.4,3-1.2,4.7c0,26.3,0,52.6,0,79
		c-0.3,1.7,0.4,3.2,1.9,4.1c-7.2-0.2-14.4-0.2-21.6,0c0.7-1,2.4-1.5,2.2-3c0.1-11.4,0-22.7,0-34.1c-16.3,0-32.7,0-49,0
		c0,11,0,22,0,33c-0.2,1.6,0.4,3,1.5,4.1c-7.1-0.2-14.1-0.2-21.2,0c1.3-1,1.9-2.4,1.7-4.1c0-27.3,0-54.5,0-81.8
		C355.1,78.3,354.4,77.4,354.1,77z"/>
	<path fill="#BC3737" d="M448.7,76.9c24.7,0.1,49.4,0.2,74.1-0.1c0.5-0.4,1.5-1.1,2-1.5c-0.2,5.4-0.1,10.8,0,16.3
		c-1.1-1.4-2.5-2.2-4.3-1.9c-18.4,0-36.8,0-55.2,0c0,7.8,0,15.5,0,23.3c12.9,0,25.8-0.1,38.6,0.1c0.6-0.9,1.2-1.8,1.9-2.7
		c0.1,6.1,0,12.1,0.1,18.2c-0.9-1-1.6-2.6-3.2-2.2c-12.4-0.1-24.9,0-37.3,0c0,7.9,0,15.8,0,23.8c19.6,0,39.2-0.1,58.8,0
		c0.7-0.6,1.3-1.1,2-1.7c-0.1,6.2,0,12.3-0.1,18.5c-0.5-0.8-1.1-1.6-1.6-2.3c-25.6,0-51.1-0.1-76.6,0.1c1.1-1.1,1.7-2.5,1.5-4
		c0-24,0-48,0-72C449.2,84.7,449.5,80.7,448.7,76.9z"/>
	<path fill="#BC3737" d="M614.9,77c6.9,0,13.8,0,20.6,0c-0.4,0.4-1.2,1.3-1.6,1.7c0,11,0,21.9,0,32.8c16.5,0,33,0,49.5,0
		c0-9.7,0-19.3,0-29c0-1.9-0.2-3.8-0.7-5.6c6.6,0.2,13.1,0.1,19.7,0.1c-0.4,0.4-1.2,1.3-1.6,1.7c0,28.1,0,56.2,0,84.4
		c0.5,0.4,1.5,1.1,2,1.4c-7.3,0-14.6,0-21.9,0c0.8-0.6,1.6-1.1,2.4-1.7c-0.1-11.8,0-23.5,0-35.3c-16.3,0-32.7,0-49,0c0,11,0,22,0,33
		c-0.2,1.6,0.4,3,1.5,4.1c-7-0.2-14.1-0.2-21.2,0c1.3-1,1.9-2.4,1.7-4.1c0-27.3,0-54.5,0-81.8C616.1,78.3,615.3,77.4,614.9,77z"/>
	<path fill="#BC3737" d="M1053.8,76.9c6.3,0.2,12.7,0.2,19,0c-0.7,1.1-2.2,1.9-1.8,3.5c0,17.4,0,34.7,0,52.1
		c-0.1,4.7,0.1,10.2,4.3,13.3c7.8,6,18.4,6.3,27.8,5.5c5.6-0.7,11.9-2,15.8-6.5c2.5-2.8,2.6-6.7,2.6-10.2c0-16,0-32,0-48
		c-0.1-3.2,0.5-6.6-1-9.6c6.7,0.1,13.3,0.1,20,0c-0.5,0.6-1.1,1.2-1.6,1.8c0.1,16.9,0,33.8,0,50.7c-0.1,6.3,0.6,12.8-1.8,18.7
		c-2.3,6.7-8.1,11.7-14.6,14.2c-10.8,4.3-22.7,4.1-34.1,3.6c-9.3-0.8-19.3-2.6-26.5-9.1c-4.9-4.4-7.6-10.9-7.6-17.5c0-19,0-38,0-57
		C1054.6,80.6,1054.3,78.7,1053.8,76.9z"/>
	<g>
		<path fill="#BC3737" d="M533.3,77.2c15.7,0.2,31.5,0,47.2,0.1c5.6,0.1,11.5-0.7,16.9,1.5c6.7,2.3,12,8.5,12.9,15.6
			c0.7,6.8,0,14.2-3.7,20.1c-4.2,6.9-11.9,11.9-20.2,11.8c-11.8,0-23.7,0-35.5,0c0.1,12.2-0.3,24.4,0.2,36.6c0.2,0.4,0.7,1.3,1,1.8
			c-6.3-0.1-12.7-0.2-19,0.1c0.9-0.9,1.3-1.9,1.3-3.1c0-25.3,0-50.7,0-76C534.4,82.7,535.1,79.6,533.3,77.2z M551,91.3
			c0,6.7,0,13.3,0,19.9c11.4,0,22.8,0.2,34.2-0.1c7.9-0.3,11.6-11.2,6.6-16.9c-2.2-2.9-6.1-2.8-9.3-3C572,91.2,561.5,91.3,551,91.3z
			"/>
	</g>
	<g>
		<path fill="#BC3737" d="M739.3,76.9c6.5,0.2,13.1,0.1,19.7,0c0.9,4.1,3,7.7,4.6,11.5c9.5,20.9,18.9,41.8,28.4,62.7
			c2.4,4.5,3.5,9.7,7,13.5c-7.5-0.2-15-0.1-22.5-0.1c0.4-0.4,1-1.2,1.4-1.6c-3.5-6.9-6.7-13.9-10.1-20.9c-12.1,0-24.2,0-36.3,0
			c-3.1,7-6.1,14.1-9.3,21c0.3,0.4,1,1.1,1.3,1.5c-6.6,0-13.3-0.1-19.9,0.1c1-1.1,1.9-2.2,2.4-3.6c10.9-26.8,21.7-53.5,32.6-80.2
			C739,79.5,739.2,78.2,739.3,76.9z M736.9,127.5c8.3,0,16.7,0,25,0c-4.4-9.7-8.9-19.3-13.3-28.9
			C744.7,108.3,740.7,117.8,736.9,127.5z"/>
	</g>
</g>
</svg>
