<svg id="Layer_1" data-name="Layer 1" xmlns="http://www.w3.org/2000/svg" viewBox="0 0 1983 378"><defs><style>.cls-1{fill:#8661c5;}.cls-2{fill:#3b2e58;}</style></defs><path class="cls-1" d="M921,153.46H877.31v30.36h40.11v22.6H877.31v48.05H849.45V130.77H921Zm50.59,103.17q-22.08,0-34.72-12.38t-12.64-33.6q0-21.92,13.11-34.29T972.76,164q22,0,34.5,12.38t12.51,32.74q0,22-12.9,34.76T971.55,256.63Zm.69-71.77q-9.66,0-15,6.64t-5.35,18.8q0,25.45,20.53,25.45,19.59,0,19.58-26.14Q992,184.86,972.24,184.86Zm139.61,69.61h-27.17V241h-.43q-10.1,15.62-27,15.62-30.72,0-30.71-37.18V166.14h27.17V217q0,18.72,14.84,18.72a14.7,14.7,0,0,0,11.73-5.13q4.4-5.13,4.4-13.93V166.14h27.17Zm94.12,0H1178.8V205.39q0-20.53-14.66-20.53a14.56,14.56,0,0,0-11.65,5.43q-4.58,5.43-4.57,13.8v50.38h-27.26V166.14h27.26v14h.34Q1158,164,1176.64,164q29.34,0,29.33,36.4Zm98.48,0H1277.2V242.31h-.35q-9.31,14.31-27.34,14.32-16.58,0-26.66-11.69t-10.09-32.65q0-21.91,11.12-35.11T1253,164q17.09,0,23.81,12.25h.35V123.7h27.25Zm-26.74-43v-6.64a20.94,20.94,0,0,0-5-14.32,17.68,17.68,0,0,0-27.17,1.42q-5.1,7.13-5.09,19.54,0,11.66,4.91,17.94t13.63,6.3a16.39,16.39,0,0,0,13.5-6.64Q1277.71,222.47,1277.71,211.51Zm118.13,6.56h-57.62q1.38,19.23,24.24,19.23,14.58,0,25.62-6.9v19.67q-12.25,6.56-31.83,6.56-21.39,0-33.21-11.86t-11.82-33.09q0-22,12.77-34.85t31.4-12.85q19.32,0,29.89,11.47t10.56,31.15Zm-25.27-16.74q0-19-15.35-19a14.66,14.66,0,0,0-11.35,5.43,24.67,24.67,0,0,0-5.82,13.54Zm90.75-10.61a23.67,23.67,0,0,0-11.47-2.67q-8.89,0-13.89,6.51t-5,17.73v42.18H1403.7V166.14H1431v16.39h.34q6.48-17.94,23.29-17.94a17.56,17.56,0,0,1,6.73,1Zm6.23,61.42V230.06a58.67,58.67,0,0,0,13.41,6,44.58,44.58,0,0,0,12.64,2q7.25,0,11.43-2t4.19-6a5.59,5.59,0,0,0-1.9-4.31,17.61,17.61,0,0,0-4.88-3,53.56,53.56,0,0,0-6.51-2.33q-3.54-1-6.81-2.33a65.74,65.74,0,0,1-9.28-4.27,26.8,26.8,0,0,1-6.73-5.31,20.89,20.89,0,0,1-4.14-7,28.15,28.15,0,0,1-1.42-9.41,24.15,24.15,0,0,1,3.24-12.76,26.34,26.34,0,0,1,8.62-8.76,39.33,39.33,0,0,1,12.34-5,63.87,63.87,0,0,1,14.45-1.6,79.46,79.46,0,0,1,11.9.91,88.39,88.39,0,0,1,11.9,2.63v21a42.49,42.49,0,0,0-11.08-4.53,46.61,46.61,0,0,0-11.6-1.51,26.17,26.17,0,0,0-5,.47,16.81,16.81,0,0,0-4.18,1.38,7.73,7.73,0,0,0-2.85,2.33,5.38,5.38,0,0,0-1,3.24,6,6,0,0,0,1.56,4.14,13.3,13.3,0,0,0,4,3,39.25,39.25,0,0,0,5.56,2.25c2.05.66,4.07,1.33,6.09,2a80.56,80.56,0,0,1,9.83,4.14,31.49,31.49,0,0,1,7.55,5.27,20.62,20.62,0,0,1,4.83,7.07,28.29,28.29,0,0,1-1.73,23.07,27.31,27.31,0,0,1-9,9.06,41,41,0,0,1-13,5.09,72.48,72.48,0,0,1-15.31,1.6A78.93,78.93,0,0,1,1467.55,252.14Zm214.23,2.33h-28V204.09h-51.24v50.38h-27.86V130.77h27.86v49.34h51.24V130.77h28Zm94.12,0h-27.17V241h-.43q-10.1,15.62-27,15.62-30.72,0-30.71-37.18V166.14h27.17V217q0,18.72,14.84,18.72a14.7,14.7,0,0,0,11.73-5.13q4.39-5.13,4.4-13.93V166.14h27.17Zm36.41-10.27H1812v10.27h-27.26V123.7H1812v55.72h.34Q1822.41,164,1841,164q17.09,0,26.31,11.73t9.23,32.09q0,22.09-10.78,35.46T1837,256.63Q1820.69,256.63,1812.31,244.2Zm-.77-37.26V216q0,8.53,4.91,14.14a16,16,0,0,0,12.6,5.61q9.32,0,14.45-7.2t5.13-20.4q0-11-4.7-17.12t-13.41-6.17a17.33,17.33,0,0,0-13.59,6.12Q1811.54,197.12,1811.54,206.94Z"/><path class="cls-2" d="M162.24,218.31h-8.46V185.06c0-2.72.17-6.06.5-10h-.14a34.42,34.42,0,0,1-1.4,4.84L137.4,218.31h-5.87l-15.38-38.12a36.41,36.41,0,0,1-1.36-5.13h-.14c.19,2.06.28,5.41.28,10.07v33.18h-7.88V166.93h12l13.51,34.22a50.28,50.28,0,0,1,2,5.88h.18q1.32-4,2.15-6l13.76-34.08h11.58Zm13.34-44.39a5,5,0,0,1-3.49-1.33,4.36,4.36,0,0,1-1.46-3.37,4.46,4.46,0,0,1,1.46-3.4,4.9,4.9,0,0,1,3.49-1.37,5.07,5.07,0,0,1,3.58,1.37,4.57,4.57,0,0,1,0,6.72A5,5,0,0,1,175.58,173.92Zm4.12,44.39h-8.31V181.62h8.31ZM215,216.63a20.46,20.46,0,0,1-10.43,2.54q-8.16,0-13.19-5.1t-5-13.24q0-9.08,5.39-14.57t14.42-5.5a21,21,0,0,1,8.86,1.76v7.74a13.36,13.36,0,0,0-8.17-2.87,11.36,11.36,0,0,0-8.64,3.56,13,13,0,0,0-3.37,9.34q0,5.7,3.17,9a11.26,11.26,0,0,0,8.51,3.3,13.28,13.28,0,0,0,8.46-3.19Zm27.69-27.09a6.87,6.87,0,0,0-4.33-1.18,7.44,7.44,0,0,0-6.17,3.33c-1.64,2.22-2.47,5.24-2.47,9.07v17.55H221.4V181.62h8.31v7.56h.14a12.91,12.91,0,0,1,3.75-6,8.48,8.48,0,0,1,5.64-2.17,6.89,6.89,0,0,1,3.44.69Zm19.67,29.63q-8.49,0-13.56-5.14t-5.07-13.63q0-9.26,5.28-14.44t14.25-5.2q8.6,0,13.4,5.05t4.8,14q0,8.79-5.18,14.07T262.35,219.17Zm.39-31.78a9.49,9.49,0,0,0-7.7,3.4q-2.83,3.41-2.83,9.39c0,3.85.95,6.88,2.87,9.09a9.61,9.61,0,0,0,7.66,3.31,9.16,9.16,0,0,0,7.55-3.26c1.75-2.17,2.63-5.27,2.63-9.28s-.88-7.16-2.63-9.35A9.1,9.1,0,0,0,262.74,187.39Zm23,29.78v-7.71A16.54,16.54,0,0,0,296.06,213q7.53,0,7.53-4.44a3.48,3.48,0,0,0-.65-2.13,6,6,0,0,0-1.73-1.56,13.47,13.47,0,0,0-2.58-1.22l-3.32-1.22a36.12,36.12,0,0,1-4.07-1.9,12.63,12.63,0,0,1-3-2.27,8.65,8.65,0,0,1-1.81-2.89,10.75,10.75,0,0,1-.6-3.76,8.67,8.67,0,0,1,1.25-4.68,10.93,10.93,0,0,1,3.37-3.4,16,16,0,0,1,4.8-2.08,21.76,21.76,0,0,1,5.55-.7,25.22,25.22,0,0,1,9.11,1.54v7.27a15.42,15.42,0,0,0-8.89-2.65,11.38,11.38,0,0,0-2.85.33,7.3,7.3,0,0,0-2.17.89,4.36,4.36,0,0,0-1.39,1.38,3.26,3.26,0,0,0-.51,1.77,3.75,3.75,0,0,0,.51,2,4.47,4.47,0,0,0,1.48,1.45,13.1,13.1,0,0,0,2.37,1.15c.92.35,2,.72,3.17,1.13a45.15,45.15,0,0,1,4.25,2,14.29,14.29,0,0,1,3.2,2.28,8.78,8.78,0,0,1,2.05,2.93,10.12,10.12,0,0,1,.71,4,9.07,9.07,0,0,1-1.29,4.88,10.76,10.76,0,0,1-3.44,3.44,16.24,16.24,0,0,1-5,2,25.91,25.91,0,0,1-5.93.66A25,25,0,0,1,285.78,217.17Zm48.37,2q-8.49,0-13.56-5.14t-5.07-13.63q0-9.26,5.28-14.44t14.25-5.2q8.59,0,13.4,5.05t4.8,14q0,8.79-5.18,14.07T334.15,219.17Zm.39-31.78a9.49,9.49,0,0,0-7.7,3.4Q324,194.2,324,200.18q0,5.77,2.86,9.09a9.64,9.64,0,0,0,7.67,3.31,9.16,9.16,0,0,0,7.55-3.26c1.75-2.17,2.63-5.27,2.63-9.28s-.88-7.16-2.63-9.35A9.1,9.1,0,0,0,334.54,187.39Zm44.86-16.63a7.6,7.6,0,0,0-3.83-1q-6.06,0-6.06,6.85v5H378v6.52h-8.49v30.17h-8.32V188.14H355v-6.52h6.27v-6a11.57,11.57,0,0,1,3.8-9.15,15.8,15.8,0,0,1,14.37-2.67Zm24.49,47.16a14.41,14.41,0,0,1-6.41,1.22q-10.68,0-10.68-10.25V188.14h-6.13v-6.52h6.13v-8.49l8.31-2.37v10.86h8.78v6.52h-8.78v18.35c0,2.17.4,3.73,1.18,4.66a4.93,4.93,0,0,0,3.95,1.39,5.71,5.71,0,0,0,3.65-1.21Zm44.42-47.16a7.6,7.6,0,0,0-3.83-1q-6.06,0-6.06,6.85v5H447v6.52h-8.49v30.17h-8.32V188.14h-6.27v-6.52h6.27v-6a11.57,11.57,0,0,1,3.8-9.15,15.8,15.8,0,0,1,14.37-2.67Zm19,48.41q-8.49,0-13.56-5.14t-5.07-13.63q0-9.26,5.28-14.44t14.25-5.2q8.6,0,13.4,5.05t4.8,14q0,8.79-5.18,14.07T467.3,219.17Zm.39-31.78a9.49,9.49,0,0,0-7.7,3.4q-2.83,3.41-2.83,9.39,0,5.77,2.86,9.09a9.64,9.64,0,0,0,7.67,3.31,9.16,9.16,0,0,0,7.55-3.26c1.75-2.17,2.63-5.27,2.63-9.28s-.88-7.16-2.63-9.35A9.1,9.1,0,0,0,467.69,187.39Zm46.25,2.15a6.87,6.87,0,0,0-4.33-1.18,7.44,7.44,0,0,0-6.17,3.33Q501,195,501,200.76v17.55h-8.32V181.62H501v7.56h.14a12.84,12.84,0,0,1,3.75-6A8.46,8.46,0,0,1,510.5,181a6.92,6.92,0,0,1,3.44.69Zm20.95,26.73v-8.78a13.92,13.92,0,0,0,2.81,1.94,22.7,22.7,0,0,0,3.46,1.45,27.17,27.17,0,0,0,3.66.91,19,19,0,0,0,3.37.32c3.58,0,6.25-.59,8-1.79a5.87,5.87,0,0,0,2.64-5.19A5.61,5.61,0,0,0,558,202a9.22,9.22,0,0,0-2.45-2.46,26.36,26.36,0,0,0-3.71-2.13c-1.42-.68-2.95-1.39-4.57-2.13-1.75-.93-3.37-1.88-4.88-2.83a21.24,21.24,0,0,1-3.92-3.18,13.27,13.27,0,0,1-2.62-3.92,12.85,12.85,0,0,1-.95-5.12,11.88,11.88,0,0,1,1.63-6.29,13.82,13.82,0,0,1,4.3-4.41,19.68,19.68,0,0,1,6.08-2.58,28.93,28.93,0,0,1,6.95-.84q8.07,0,11.75,1.83v8.42q-4.37-3.16-11.25-3.16a20.16,20.16,0,0,0-3.78.36,11.39,11.39,0,0,0-3.37,1.18,7.28,7.28,0,0,0-2.41,2.12,5.13,5.13,0,0,0-.94,3.12,5.89,5.89,0,0,0,.72,3,7.62,7.62,0,0,0,2.1,2.29,21,21,0,0,0,3.37,2c1.32.65,2.86,1.36,4.6,2.13q2.68,1.39,5.07,2.94a23.8,23.8,0,0,1,4.19,3.4,15.23,15.23,0,0,1,2.87,4.14,12.23,12.23,0,0,1,1.06,5.18,12.84,12.84,0,0,1-1.58,6.59A12.69,12.69,0,0,1,562,216a18.67,18.67,0,0,1-6.14,2.44,34.82,34.82,0,0,1-7.35.75,31.49,31.49,0,0,1-3.17-.19c-1.25-.13-2.54-.33-3.85-.58a34.51,34.51,0,0,1-3.73-.91A11.68,11.68,0,0,1,534.89,216.27Zm56.79,1.65a14.41,14.41,0,0,1-6.41,1.22q-10.68,0-10.68-10.25V188.14h-6.13v-6.52h6.13v-8.49l8.31-2.37v10.86h8.78v6.52H582.9v18.35c0,2.17.4,3.73,1.18,4.66a4.93,4.93,0,0,0,3.95,1.39,5.71,5.71,0,0,0,3.65-1.21Zm34.16.39h-8.07v-5.73h-.14a12.13,12.13,0,0,1-11.15,6.59c-3.6,0-6.43-1-8.47-2.93a10.31,10.31,0,0,1-3.07-7.78q0-10.4,12-12.11l10.9-1.54q0-7.86-7.46-7.85a17.69,17.69,0,0,0-11.82,4.51V184.2a25.82,25.82,0,0,1,13.4-3.44q13.91,0,13.91,13.69Zm-8-18-7.71,1.07a12.44,12.44,0,0,0-5.39,1.74q-1.82,1.28-1.81,4.46a4.88,4.88,0,0,0,1.67,3.82,6.44,6.44,0,0,0,4.46,1.49,8.24,8.24,0,0,0,6.29-2.67,9.47,9.47,0,0,0,2.49-6.72Zm35.53-10.75a6.87,6.87,0,0,0-4.33-1.18,7.44,7.44,0,0,0-6.17,3.33c-1.64,2.22-2.47,5.24-2.47,9.07v17.55h-8.31V181.62h8.31v7.56h.14a12.91,12.91,0,0,1,3.75-6A8.46,8.46,0,0,1,649.9,181a6.92,6.92,0,0,1,3.44.69Zm25.85,28.38a14.41,14.41,0,0,1-6.41,1.22q-10.68,0-10.68-10.25V188.14H656v-6.52h6.13v-8.49l8.32-2.37v10.86h8.77v6.52h-8.77v18.35c0,2.17.39,3.73,1.18,4.66a4.91,4.91,0,0,0,3.94,1.39,5.69,5.69,0,0,0,3.65-1.21Zm38,.39h-8.31v-5.8h-.15a12,12,0,0,1-11.25,6.66q-13,0-13-15.62V181.62h8.32v21.07q0,9.88,7.63,9.89a7.71,7.71,0,0,0,6.07-2.72,10.45,10.45,0,0,0,2.39-7.13V181.62h8.31Zm15-5.41H732v22.29h-8.31V181.62H732v6.45h.15q4.26-7.31,12.47-7.31,7,0,10.89,4.91t3.91,13.19q0,9.16-4.41,14.69a14.58,14.58,0,0,1-12,5.52A12,12,0,0,1,732.18,212.9ZM732,198.43V203a9.72,9.72,0,0,0,2.56,6.81,9,9,0,0,0,13.76-.81q2.64-3.6,2.64-10c0-3.61-.82-6.43-2.46-8.48a8.06,8.06,0,0,0-6.64-3.06,9,9,0,0,0-7.15,3.15A11.65,11.65,0,0,0,732,198.43Zm31.52,18.74v-7.71A16.58,16.58,0,0,0,773.77,213c5,0,7.52-1.48,7.52-4.44a3.47,3.47,0,0,0-.64-2.13,6,6,0,0,0-1.74-1.56,13.47,13.47,0,0,0-2.58-1.22L773,202.44a35.31,35.31,0,0,1-4.07-1.9,12.43,12.43,0,0,1-3-2.27,8.65,8.65,0,0,1-1.81-2.89,10.51,10.51,0,0,1-.61-3.76,8.76,8.76,0,0,1,1.25-4.68,10.93,10.93,0,0,1,3.37-3.4,16,16,0,0,1,4.8-2.08,21.89,21.89,0,0,1,5.56-.7,25.17,25.17,0,0,1,9.1,1.54v7.27a15.4,15.4,0,0,0-8.89-2.65,11.24,11.24,0,0,0-2.84.33,7.19,7.19,0,0,0-2.17.89,4.3,4.3,0,0,0-1.4,1.38,3.34,3.34,0,0,0-.5,1.77,3.84,3.84,0,0,0,.5,2,4.41,4.41,0,0,0,1.49,1.45,12.67,12.67,0,0,0,2.36,1.15c.92.35,2,.72,3.17,1.13a44,44,0,0,1,4.25,2,14.6,14.6,0,0,1,3.21,2.28,8.9,8.9,0,0,1,2,2.93,9.93,9.93,0,0,1,.72,4,9.07,9.07,0,0,1-1.29,4.88,10.86,10.86,0,0,1-3.44,3.44,16.3,16.3,0,0,1-5,2,25.84,25.84,0,0,1-5.93.66A25,25,0,0,1,763.48,217.17Z"/></svg>