<svg id="Layer_1" data-name="Layer 1" xmlns="http://www.w3.org/2000/svg" viewBox="0 0 790 154"><defs><style>.cls-1{fill:#3b2e58;}</style></defs><path class="cls-1" d="M110.37,102.78h-8.45V69.52c0-2.72.16-6.06.5-10h-.15a34.73,34.73,0,0,1-1.39,4.84L85.54,102.78H79.66L64.29,64.65a35.07,35.07,0,0,1-1.36-5.13h-.15c.19,2.06.29,5.41.29,10.07v33.19H55.19V51.39h12L80.7,85.61a50.28,50.28,0,0,1,2,5.88h.18q1.32-4,2.15-6L98.8,51.39h11.57Zm13.35-44.4a5,5,0,0,1-3.5-1.33,4.35,4.35,0,0,1-1.45-3.37,4.45,4.45,0,0,1,1.45-3.4,4.92,4.92,0,0,1,3.5-1.36,5.08,5.08,0,0,1,3.58,1.36,4.57,4.57,0,0,1,0,6.72A5,5,0,0,1,123.72,58.38Zm4.12,44.4h-8.32V66.08h8.32Zm35.29-1.69a20.49,20.49,0,0,1-10.43,2.55q-8.17,0-13.19-5.11t-5-13.24q0-9.08,5.4-14.57t14.42-5.5A21,21,0,0,1,163.16,67v7.74A13.4,13.4,0,0,0,155,71.85a11.33,11.33,0,0,0-8.63,3.57A13,13,0,0,0,143,84.75q0,5.7,3.17,9A11.28,11.28,0,0,0,154.67,97a13.28,13.28,0,0,0,8.46-3.19ZM190.82,74a6.88,6.88,0,0,0-4.34-1.18,7.42,7.42,0,0,0-6.16,3.33q-2.48,3.33-2.47,9.07v17.56h-8.32V66.08h8.32v7.56H178a12.76,12.76,0,0,1,3.75-6,8.45,8.45,0,0,1,5.64-2.16,6.93,6.93,0,0,1,3.44.68Zm19.67,29.64q-8.49,0-13.57-5.15t-5.07-13.63q0-9.26,5.29-14.44t14.24-5.2q8.61,0,13.41,5t4.8,14q0,8.79-5.18,14.07T210.49,103.64Zm.39-31.79a9.47,9.47,0,0,0-7.7,3.4q-2.84,3.41-2.83,9.39,0,5.77,2.86,9.09A9.63,9.63,0,0,0,210.88,97a9.14,9.14,0,0,0,7.55-3.26c1.75-2.17,2.63-5.27,2.63-9.28s-.88-7.16-2.63-9.35A9.11,9.11,0,0,0,210.88,71.85Zm23,29.78v-7.7a16.59,16.59,0,0,0,10.28,3.54q7.53,0,7.53-4.44a3.48,3.48,0,0,0-.65-2.13,6,6,0,0,0-1.74-1.56,13.47,13.47,0,0,0-2.58-1.22l-3.31-1.22a35.31,35.31,0,0,1-4.07-1.9,12.63,12.63,0,0,1-3-2.27,8.65,8.65,0,0,1-1.81-2.89,10.51,10.51,0,0,1-.61-3.76,8.67,8.67,0,0,1,1.26-4.68,10.82,10.82,0,0,1,3.37-3.4,16.16,16.16,0,0,1,4.8-2.08,21.76,21.76,0,0,1,5.55-.7,25.17,25.17,0,0,1,9.1,1.54V74a15.32,15.32,0,0,0-8.88-2.66,11.33,11.33,0,0,0-2.85.33,7.3,7.3,0,0,0-2.17.89,4.4,4.4,0,0,0-1.4,1.38,3.34,3.34,0,0,0-.5,1.78,3.83,3.83,0,0,0,.5,2,4.5,4.5,0,0,0,1.49,1.45,13,13,0,0,0,2.36,1.15c.92.35,2,.72,3.18,1.13a44.91,44.91,0,0,1,4.24,2,14.14,14.14,0,0,1,3.21,2.28,8.9,8.9,0,0,1,2,2.93,10,10,0,0,1,.72,4,9.06,9.06,0,0,1-1.29,4.87,10.86,10.86,0,0,1-3.44,3.44,16,16,0,0,1-5,2,26,26,0,0,1-5.94.67A24.9,24.9,0,0,1,233.92,101.63Zm48.37,2q-8.51,0-13.57-5.15t-5.07-13.63q0-9.26,5.29-14.44t14.24-5.2q8.61,0,13.4,5t4.81,14q0,8.79-5.18,14.07T282.29,103.64Zm.39-31.79a9.47,9.47,0,0,0-7.7,3.4q-2.84,3.41-2.83,9.39,0,5.77,2.86,9.09A9.63,9.63,0,0,0,282.68,97a9.11,9.11,0,0,0,7.54-3.26c1.76-2.17,2.64-5.27,2.64-9.28s-.88-7.16-2.64-9.35A9.08,9.08,0,0,0,282.68,71.85Zm44.86-16.63a7.61,7.61,0,0,0-3.84-1q-6,0-6.05,6.85v5h8.53V72.6h-8.5v30.18h-8.31V72.6H303.1V66.08h6.27V60.13a11.57,11.57,0,0,1,3.8-9.15,15.89,15.89,0,0,1,14.37-2.67ZM352,102.38a14.46,14.46,0,0,1-6.42,1.22q-10.67,0-10.67-10.25V72.6h-6.13V66.08h6.13V57.59l8.31-2.37V66.08H352V72.6h-8.78V91c0,2.17.39,3.73,1.18,4.66a4.91,4.91,0,0,0,3.94,1.4A5.75,5.75,0,0,0,352,95.79Zm44.42-47.16a7.6,7.6,0,0,0-3.83-1q-6.06,0-6.06,6.85v5h8.53V72.6H386.6v30.18h-8.32V72.6H372V66.08h6.27V60.13a11.57,11.57,0,0,1,3.8-9.15,15.89,15.89,0,0,1,14.37-2.67Zm19,48.42q-8.51,0-13.57-5.15T396.8,84.86q0-9.26,5.29-14.44t14.24-5.2q8.61,0,13.4,5t4.81,14q0,8.79-5.18,14.07T415.44,103.64Zm.39-31.79a9.47,9.47,0,0,0-7.7,3.4q-2.83,3.41-2.84,9.39,0,5.77,2.87,9.09A9.63,9.63,0,0,0,415.83,97a9.11,9.11,0,0,0,7.54-3.26c1.76-2.17,2.64-5.27,2.64-9.28s-.88-7.16-2.64-9.35A9.08,9.08,0,0,0,415.83,71.85ZM462.08,74a6.88,6.88,0,0,0-4.34-1.18,7.42,7.42,0,0,0-6.16,3.33q-2.47,3.33-2.47,9.07v17.56h-8.32V66.08h8.32v7.56h.14a12.82,12.82,0,0,1,3.74-6,8.49,8.49,0,0,1,5.65-2.16,7,7,0,0,1,3.44.68ZM483,100.73V92a13.26,13.26,0,0,0,2.81,1.94,21.73,21.73,0,0,0,3.46,1.45,27.42,27.42,0,0,0,3.65.91,19.15,19.15,0,0,0,3.37.33q5.39,0,8-1.79a5.9,5.9,0,0,0,2.63-5.2,5.68,5.68,0,0,0-.87-3.17A9.27,9.27,0,0,0,503.63,84a25.8,25.8,0,0,0-3.71-2.13q-2.13-1-4.57-2.13c-1.74-.93-3.36-1.88-4.87-2.83a21.62,21.62,0,0,1-3.92-3.17,13.25,13.25,0,0,1-2.62-3.93,12.82,12.82,0,0,1-.95-5.12,11.79,11.79,0,0,1,1.63-6.29,13.82,13.82,0,0,1,4.3-4.41A19.68,19.68,0,0,1,495,51.37a28.87,28.87,0,0,1,6.95-.84q8.06,0,11.75,1.83v8.42q-4.37-3.16-11.25-3.16a20,20,0,0,0-3.78.36,11.29,11.29,0,0,0-3.37,1.18,7.32,7.32,0,0,0-2.42,2.12A5.19,5.19,0,0,0,492,64.4a5.89,5.89,0,0,0,.72,3,7.58,7.58,0,0,0,2.09,2.29,21.4,21.4,0,0,0,3.37,2c1.33.66,2.86,1.37,4.61,2.13q2.68,1.4,5.07,2.94a24.18,24.18,0,0,1,4.19,3.4,15.23,15.23,0,0,1,2.87,4.14,12.26,12.26,0,0,1,1,5.18,12.12,12.12,0,0,1-5.82,11,18.93,18.93,0,0,1-6.15,2.43,34,34,0,0,1-7.34.76,31.71,31.71,0,0,1-3.17-.2c-1.26-.13-2.54-.32-3.85-.57a37,37,0,0,1-3.73-.92A11.51,11.51,0,0,1,483,100.73Zm56.79,1.65a14.46,14.46,0,0,1-6.42,1.22q-10.67,0-10.67-10.25V72.6H516.6V66.08h6.13V57.59L531,55.22V66.08h8.78V72.6H531V91c0,2.17.39,3.73,1.18,4.66a4.91,4.91,0,0,0,3.94,1.4,5.75,5.75,0,0,0,3.66-1.22Zm34.15.4h-8.06V97h-.14q-3.81,6.6-11.15,6.6-5.42,0-8.47-2.94a10.26,10.26,0,0,1-3.07-7.78q0-10.4,12-12.11l10.89-1.54q0-7.84-7.45-7.85a17.73,17.73,0,0,0-11.83,4.51V68.66a25.84,25.84,0,0,1,13.41-3.44q13.9,0,13.9,13.69Zm-8-18-7.7,1.08a12.27,12.27,0,0,0-5.39,1.73Q551,88.84,551,92a4.87,4.87,0,0,0,1.66,3.81,6.46,6.46,0,0,0,4.46,1.49,8.22,8.22,0,0,0,6.29-2.67,9.47,9.47,0,0,0,2.49-6.72ZM601.48,74a6.88,6.88,0,0,0-4.34-1.18A7.42,7.42,0,0,0,591,76.15q-2.47,3.33-2.47,9.07v17.56h-8.32V66.08h8.32v7.56h.14a12.76,12.76,0,0,1,3.75-6A8.45,8.45,0,0,1,598,65.44a7,7,0,0,1,3.44.68Zm25.85,28.38a14.41,14.41,0,0,1-6.41,1.22q-10.68,0-10.68-10.25V72.6h-6.13V66.08h6.13V57.59l8.31-2.37V66.08h8.78V72.6h-8.78V91c0,2.17.4,3.73,1.18,4.66a4.94,4.94,0,0,0,3.95,1.4,5.72,5.72,0,0,0,3.65-1.22Zm38,.4H657V97h-.14a12,12,0,0,1-11.25,6.67q-13,0-13-15.63V66.08h8.31V87.15q0,9.9,7.64,9.89a7.72,7.72,0,0,0,6.07-2.72A10.43,10.43,0,0,0,657,87.19V66.08h8.32Zm15-5.41h-.14v22.28h-8.32V66.08h8.32v6.45h.14q4.28-7.31,12.47-7.31,7,0,10.9,4.91t3.9,13.19q0,9.17-4.4,14.69a14.59,14.59,0,0,1-12,5.52A12.05,12.05,0,0,1,680.31,97.37Zm-.21-14.48v4.55a9.72,9.72,0,0,0,2.56,6.81,9,9,0,0,0,13.76-.81q2.64-3.6,2.63-10c0-3.61-.81-6.43-2.45-8.48A8.08,8.08,0,0,0,690,71.85,9,9,0,0,0,682.8,75,11.71,11.71,0,0,0,680.1,82.89Zm31.52,18.74v-7.7a16.63,16.63,0,0,0,10.29,3.54q7.51,0,7.52-4.44a3.47,3.47,0,0,0-.64-2.13,6,6,0,0,0-1.74-1.56,13.47,13.47,0,0,0-2.58-1.22l-3.32-1.22a35.13,35.13,0,0,1-4.06-1.9,12.43,12.43,0,0,1-3-2.27,8.49,8.49,0,0,1-1.81-2.89,10.51,10.51,0,0,1-.61-3.76,8.76,8.76,0,0,1,1.25-4.68,10.93,10.93,0,0,1,3.37-3.4,16.27,16.27,0,0,1,4.8-2.08,21.78,21.78,0,0,1,5.56-.7,25.21,25.21,0,0,1,9.1,1.54V74a15.33,15.33,0,0,0-8.89-2.66,11.38,11.38,0,0,0-2.85.33,7.3,7.3,0,0,0-2.17.89A4.36,4.36,0,0,0,720.44,74a3.27,3.27,0,0,0-.51,1.78,3.74,3.74,0,0,0,.51,2,4.47,4.47,0,0,0,1.48,1.45,13.1,13.1,0,0,0,2.37,1.15c.92.35,2,.72,3.17,1.13a45.15,45.15,0,0,1,4.25,2,14.6,14.6,0,0,1,3.21,2.28,8.9,8.9,0,0,1,2,2.93,10,10,0,0,1,.71,4,9.06,9.06,0,0,1-1.29,4.87,10.76,10.76,0,0,1-3.44,3.44,15.9,15.9,0,0,1-5,2,25.9,25.9,0,0,1-5.93.67A25,25,0,0,1,711.62,101.63Z"/></svg>